<svg id="Layer_1" height="512" viewBox="0 0 32 32" width="512" xmlns="http://www.w3.org/2000/svg" data-name="Layer 1"><path d="m29 14v6a5.009 5.009 0 0 1 -4 4.9v3.1a1 1 0 0 1 -.57.9.907.907 0 0 1 -.43.1.961.961 0 0 1 -.62-.22l-4.73-3.78h-2.65a4.919 4.919 0 0 1 -2.5-.67l1.59-1.33h2.91a7.008 7.008 0 0 0 7-7v-6.9a5 5 0 0 1 4 4.9z" fill="#3c9de5"/><path d="m18 3h-10a5 5 0 0 0 -5 5v8a5.009 5.009 0 0 0 4 4.9v4.1a1 1 0 0 0 .58.91 1.023 1.023 0 0 0 .42.09 1 1 0 0 0 .64-.23l3.35-2.79 2.37-1.98h3.64a5 5 0 0 0 5-5v-8a5 5 0 0 0 -5-5z" fill="#2781e2"/><g fill="#fff"><circle cx="9" cy="12" r="1.5"/><circle cx="13.5" cy="12" r="1.5"/><circle cx="18" cy="12" r="1.5"/></g></svg>